<?xml version="1.0" encoding="UTF-8" standalone="no"?>
<!-- Created with Inkscape (http://www.inkscape.org/) -->

<svg
   xmlns:dc="http://purl.org/dc/elements/1.1/"
   xmlns:cc="http://creativecommons.org/ns#"
   xmlns:rdf="http://www.w3.org/1999/02/22-rdf-syntax-ns#"
   xmlns:svg="http://www.w3.org/2000/svg"
   xmlns="http://www.w3.org/2000/svg"
   xmlns:sodipodi="http://sodipodi.sourceforge.net/DTD/sodipodi-0.dtd"
   xmlns:inkscape="http://www.inkscape.org/namespaces/inkscape"
   width="124.98756mm"
   height="124.98756mm"
   viewBox="0 0 124.98756 124.98756"
   version="1.1"
   id="svg8"
   inkscape:version="0.92.5 (2060ec1f9f, 2020-04-08)"
   sodipodi:docname="logo.svg">
  <defs
     id="defs2" />
  <sodipodi:namedview
     id="base"
     pagecolor="#ffffff"
     bordercolor="#666666"
     borderopacity="1.0"
     inkscape:pageopacity="0.0"
     inkscape:pageshadow="2"
     inkscape:zoom="0.35"
     inkscape:cx="400.64321"
     inkscape:cy="-45.934521"
     inkscape:document-units="mm"
     inkscape:current-layer="layer1"
     showgrid="false"
     fit-margin-top="0"
     fit-margin-left="0"
     fit-margin-right="0"
     fit-margin-bottom="0"
     inkscape:window-width="1326"
     inkscape:window-height="704"
     inkscape:window-x="40"
     inkscape:window-y="27"
     inkscape:window-maximized="1" />
  <metadata
     id="metadata5">
    <rdf:RDF>
      <cc:Work
         rdf:about="">
        <dc:format>image/svg+xml</dc:format>
        <dc:type
           rdf:resource="http://purl.org/dc/dcmitype/StillImage" />
        <dc:title></dc:title>
      </cc:Work>
    </rdf:RDF>
  </metadata>
  <g
     inkscape:label="Camada 1"
     inkscape:groupmode="layer"
     id="layer1"
     transform="translate(395.10092,14.96997)">
    <g
       id="g4863"
       transform="translate(-396.8631,26.446427)">
      <path
         id="path4804"
         d="M 56.843612,47.49388 C 64.507003,26.416378 72.123034,5.4693159 79.779282,-15.588342 90.357588,-15.420861 99.809034,-11.98948 108.02091,-5.3106027 100.38662,15.688053 92.784876,36.598603 85.126247,57.663669 76.559038,51.982007 67.120557,48.568088 56.843612,47.49388 Z"
         inkscape:connector-curvature="0"
         style="clip-rule:evenodd;fill:#000000;fill-rule:evenodd;stroke-width:0.26458332" />
      <path
         id="path4806"
         d="m 82.557936,-23.691471 c 1.169459,-3.182144 2.265627,-6.206596 3.407304,-9.214379 0.130175,-0.3429 0.460111,-0.72734 0.790575,-0.858309 3.585898,-1.422664 7.268369,-2.415381 11.165417,-2.496872 5.542758,-0.115623 9.491928,2.746639 12.713228,6.846887 1.38457,1.762919 2.49608,3.742796 3.70046,5.643562 0.15981,0.251619 0.26829,0.66675 0.17595,0.926307 -1.10225,3.101975 -2.24684,6.188868 -3.4163,9.37842 -8.67754,-5.750189 -18.098821,-9.135533 -28.536634,-10.225616 z"
         inkscape:connector-curvature="0"
         style="clip-rule:evenodd;fill:#000000;fill-rule:evenodd;stroke-width:0.26458332" />
      <path
         id="path4808"
         d="m 61.558486,78.419173 c -0.221191,-0.475191 -0.377295,-0.809095 -0.533135,-1.143529 -2.684462,-5.756539 -5.369189,-11.513079 -8.052858,-17.269618 -0.39079,-0.838994 0.06218,-3.607594 0.750623,-4.190471 0.213783,-0.18124 0.616214,-0.203729 0.929216,-0.194204 10.0076,0.307446 18.947606,3.559968 26.833248,9.732698 0.541602,0.423862 0.617273,0.785547 0.44794,1.471612 -0.455084,1.844675 -1.496484,2.897452 -3.275807,3.677973 -5.695685,2.499254 -11.298766,5.210704 -17.099227,7.915539 z"
         inkscape:connector-curvature="0"
         style="clip-rule:evenodd;fill:#000000;fill-rule:evenodd;stroke-width:0.26458332" />
      <rect
         id="rect4810"
         height="26.458332"
         width="26.458332"
         y="-28.343639"
         x="13.96709"
         style="fill:#000000;stroke-width:0.26458332" />
      <rect
         id="rect4812"
         height="26.458332"
         width="26.458332"
         y="8.6980267"
         x="14.09938"
         style="fill:#000000;stroke-width:0.26458332" />
      <rect
         id="rect4814"
         height="26.458332"
         width="26.458332"
         y="45.739693"
         x="14.165526"
         style="fill:#000000;stroke-width:0.26458332" />
      <text
         id="text4839"
         y="-3.0663784"
         x="16.390898"
         style="font-style:normal;font-weight:normal;font-size:33.05358124px;line-height:1.25;font-family:sans-serif;letter-spacing:0px;word-spacing:0px;fill:#ffffff;fill-opacity:1;stroke:none;stroke-width:0.82633954"
         xml:space="preserve"><tspan
           style="fill:#ffffff;stroke-width:0.82633954"
           y="-3.0663784"
           x="16.390898"
           id="tspan4837"
           sodipodi:role="line">1</tspan></text>
      <text
         id="text4843"
         y="34.193169"
         x="17.257532"
         style="font-style:normal;font-weight:normal;font-size:33.05358124px;line-height:1.25;font-family:sans-serif;letter-spacing:0px;word-spacing:0px;fill:#ffffff;fill-opacity:1;stroke:none;stroke-width:0.82633954"
         xml:space="preserve"><tspan
           style="fill:#ffffff;stroke-width:0.82633954"
           y="34.193169"
           x="17.257532"
           id="tspan4841"
           sodipodi:role="line">2</tspan></text>
      <text
         id="text4847"
         y="71.000816"
         x="16.944403"
         style="font-style:normal;font-weight:normal;font-size:33.05358124px;line-height:1.25;font-family:sans-serif;letter-spacing:0px;word-spacing:0px;fill:#ffffff;fill-opacity:1;stroke:none;stroke-width:0.82633954"
         xml:space="preserve"><tspan
           style="fill:#ffffff;stroke-width:0.82633954"
           y="71.000816"
           x="16.944403"
           id="tspan4845"
           sodipodi:role="line">3</tspan></text>
    </g>
  </g>
</svg>
