<?xml version="1.0" encoding="UTF-8" standalone="no"?>
<!-- Created with Inkscape (http://www.inkscape.org/) -->

<svg
   xmlns:dc="http://purl.org/dc/elements/1.1/"
   xmlns:cc="http://creativecommons.org/ns#"
   xmlns:rdf="http://www.w3.org/1999/02/22-rdf-syntax-ns#"
   xmlns:svg="http://www.w3.org/2000/svg"
   xmlns="http://www.w3.org/2000/svg"
   xmlns:sodipodi="http://sodipodi.sourceforge.net/DTD/sodipodi-0.dtd"
   xmlns:inkscape="http://www.inkscape.org/namespaces/inkscape"
   width="472.39392"
   height="472.39392"
   viewBox="0 0 124.98756 124.98756"
   version="1.1"
   id="svg8"
   inkscape:version="0.92.5 (2060ec1f9f, 2020-04-08)"
   sodipodi:docname="logo.svg">
  <defs
     id="defs2" />
  <sodipodi:namedview
     id="base"
     pagecolor="#ffffff"
     bordercolor="#666666"
     borderopacity="1.0"
     inkscape:pageopacity="0.0"
     inkscape:pageshadow="2"
     inkscape:zoom="0.98994949"
     inkscape:cx="40.977995"
     inkscape:cy="157.59991"
     inkscape:document-units="mm"
     inkscape:current-layer="layer1"
     showgrid="false"
     fit-margin-top="0"
     fit-margin-left="0"
     fit-margin-right="0"
     fit-margin-bottom="0"
     inkscape:window-width="1326"
     inkscape:window-height="704"
     inkscape:window-x="40"
     inkscape:window-y="27"
     inkscape:window-maximized="1"
     units="px"
     showguides="false" />
  <metadata
     id="metadata5">
    <rdf:RDF>
      <cc:Work
         rdf:about="">
        <dc:format>image/svg+xml</dc:format>
        <dc:type
           rdf:resource="http://purl.org/dc/dcmitype/StillImage" />
        <dc:title></dc:title>
      </cc:Work>
    </rdf:RDF>
  </metadata>
  <g
     inkscape:label="Camada 1"
     inkscape:groupmode="layer"
     id="layer1"
     transform="translate(551.07117,-79.768113)">
    <path
       style="clip-rule:evenodd;fill:#ffffff;fill-rule:evenodd;stroke-width:0.26458332"
       inkscape:connector-curvature="0"
       d="m -495.98973,168.67839 c 7.66339,-21.0775 15.27942,-42.02456 22.93567,-63.08222 10.57831,0.16748 20.02975,3.59886 28.24163,10.27774 -7.63429,20.99866 -15.23603,41.90921 -22.89466,62.97427 -8.56721,-5.68166 -18.00569,-9.09558 -28.28264,-10.16979 z"
       id="path4804" />
    <path
       style="clip-rule:evenodd;fill:#ffffff;fill-rule:evenodd;stroke-width:0.26458332"
       inkscape:connector-curvature="0"
       d="m -470.2754,97.493042 c 1.16946,-3.182144 2.26562,-6.206596 3.4073,-9.214379 0.13018,-0.3429 0.46011,-0.72734 0.79058,-0.858309 3.58589,-1.422664 7.26836,-2.415381 11.16541,-2.496872 5.54276,-0.115623 9.49193,2.746639 12.71323,6.846887 1.38457,1.762919 2.49608,3.742796 3.70046,5.643562 0.15981,0.251619 0.26829,0.66675 0.17595,0.926307 -1.10225,3.101972 -2.24684,6.188872 -3.4163,9.378422 -8.67754,-5.75019 -18.09882,-9.135535 -28.53663,-10.225618 z"
       id="path4806" />
    <path
       style="clip-rule:evenodd;fill:#ffffff;fill-rule:evenodd;stroke-width:0.26458332"
       inkscape:connector-curvature="0"
       d="m -491.27485,199.60369 c -0.22119,-0.47519 -0.3773,-0.80909 -0.53314,-1.14353 -2.68446,-5.75654 -5.36919,-11.51308 -8.05286,-17.26962 -0.39079,-0.839 0.0622,-3.6076 0.75063,-4.19047 0.21378,-0.18124 0.61621,-0.20373 0.92921,-0.19421 10.0076,0.30745 18.94761,3.55997 26.83325,9.7327 0.5416,0.42386 0.61727,0.78555 0.44794,1.47161 -0.45508,1.84468 -1.49648,2.89746 -3.27581,3.67798 -5.69568,2.49925 -11.29876,5.2107 -17.09922,7.91554 z"
       id="path4808" />
    <text
       xml:space="preserve"
       style="font-style:normal;font-weight:normal;font-size:33.05358124px;line-height:1.25;font-family:Impact;letter-spacing:0px;word-spacing:0px;fill:#ffffff;fill-opacity:1;stroke:none;stroke-width:0.82633954;-inkscape-font-specification:Impact;font-stretch:normal;font-variant:normal;"
       x="-536.44244"
       y="118.11813"
       id="text4839"><tspan
         sodipodi:role="line"
         id="tspan4837"
         x="-536.44244"
         y="118.11813"
         style="fill:#ffffff;stroke-width:0.82633954;-inkscape-font-specification:Impact;font-family:Impact;font-weight:normal;font-style:normal;font-stretch:normal;font-variant:normal;">1</tspan></text>
    <text
       xml:space="preserve"
       style="font-style:normal;font-variant:normal;font-weight:normal;font-stretch:normal;font-size:33.05358124px;line-height:1.25;font-family:Impact;-inkscape-font-specification:Impact;letter-spacing:0px;word-spacing:0px;fill:#ffffff;fill-opacity:1;stroke:none;stroke-width:0.82633954;"
       x="-539.07318"
       y="155.37769"
       id="text4843"><tspan
         sodipodi:role="line"
         id="tspan4841"
         x="-539.07318"
         y="155.37769"
         style="font-style:normal;font-variant:normal;font-weight:normal;font-stretch:normal;font-family:Impact;-inkscape-font-specification:Impact;fill:#ffffff;stroke-width:0.82633954;">2</tspan></text>
    <text
       xml:space="preserve"
       style="font-style:normal;font-variant:normal;font-weight:normal;font-stretch:normal;font-size:33.05358124px;line-height:1.25;font-family:Impact;-inkscape-font-specification:Impact;letter-spacing:0px;word-spacing:0px;fill:#ffffff;fill-opacity:1;stroke:none;stroke-width:0.82633954;"
       x="-539.39594"
       y="192.18533"
       id="text4847"><tspan
         sodipodi:role="line"
         id="tspan4845"
         x="-539.39594"
         y="192.18533"
         style="font-style:normal;font-variant:normal;font-weight:normal;font-stretch:normal;font-family:Impact;-inkscape-font-specification:Impact;fill:#ffffff;stroke-width:0.82633954;">3</tspan></text>
  </g>
</svg>
